<svg xmlns="http://www.w3.org/2000/svg" viewBox="0 0 906.59 111.02"><defs><style>.cls-1{isolation:isolate;}.cls-2{mix-blend-mode:multiply;}.cls-3{fill:#51a494;}.cls-4{fill:#c657cf;}.cls-5{fill:#fff;}</style></defs><g class="cls-1"><g id="レイヤー_2" data-name="レイヤー 2"><g id="レイヤー_1-2" data-name="レイヤー 1"><g class="cls-2"><path class="cls-3" d="M1.44,108a7.74,7.74,0,0,1-.33-3.89,18.74,18.74,0,0,1,1.15-4,36.28,36.28,0,0,1,1.86-3.94q1-1.92,1.8-3.66c.44-.88,1.17-2.48,2.19-4.82s2.11-4.81,3.28-7.43,2.26-5.11,3.28-7.44,1.75-4,2.19-4.92a2.76,2.76,0,0,0-.22-3,27.59,27.59,0,0,0-2.19-2.46,9,9,0,0,1-1.8-2.46c-.4-.84-.06-1.81,1-2.9a4.53,4.53,0,0,1,2.51-1.26c1-.18,2.06-.35,3.12-.49a13.43,13.43,0,0,0,3-.77,4.06,4.06,0,0,0,2.19-2.08L40.05,22.74a16.09,16.09,0,0,1-.66-6.12A9.2,9.2,0,0,1,41,12.41a14.58,14.58,0,0,1,3.5-3.34l4.81-3.39q7-1.09,13.89-2.08T77,2q6.89-.66,13.89-.87T105,1.2a4.64,4.64,0,0,1,2,1.15,9.63,9.63,0,0,1,2.08,2.35,4.37,4.37,0,0,1,.76,2.51c0,.81-.67,1.35-1.91,1.64a3.41,3.41,0,0,1-.88-.22l-1.42-.49L104.2,7.6a4.22,4.22,0,0,0-.83-.28q-10.94,0-19,.28a128,128,0,0,0-14,1.14,44.07,44.07,0,0,0-10.23,2.63,25.48,25.48,0,0,0-7.65,4.87A38,38,0,0,0,46.17,24a105.91,105.91,0,0,0-6.12,11.32q-1.86,3.28-2.85,5.53a35.29,35.29,0,0,0-1.64,4.59,6.88,6.88,0,0,0-.22,3.77,39.37,39.37,0,0,0,10.34.39,76.86,76.86,0,0,0,10.44-1.75q5.25-1.26,10.56-2.9t10.61-3A101,101,0,0,1,88,40a42.27,42.27,0,0,1,10.72,0v3.17c0,.14-1,.4-3,.76L87.9,45.33q-4.87.93-11.21,2.24t-13.18,3q-6.84,1.7-13.62,3.77A116.23,116.23,0,0,0,37.37,59a55.22,55.22,0,0,0-10,5.52,18.84,18.84,0,0,0-6,6.4Q17,79.72,13.09,89.13T5.92,108a3.85,3.85,0,0,1-2.35,1.53C2.59,109.7,1.87,109.19,1.44,108Z"/><path class="cls-3" d="M108.52,108a12.37,12.37,0,0,1-5.15-7.22,24.47,24.47,0,0,1-.32-9.52,47.46,47.46,0,0,1,3-10.61q2.19-5.46,4.7-10.55t4.92-9.3c1.61-2.8,2.85-5.12,3.72-6.94.15-.37.5-1.1,1-2.19s1.21-2.37,2-3.83,1.55-3,2.35-4.7,1.59-3.27,2.35-4.76,1.43-2.81,2-3.94.9-1.87,1-2.24.59-1.31,1.1-2.63,1.09-2.75,1.75-4.32A48.71,48.71,0,0,1,135,20.72a9.81,9.81,0,0,1,2.41-3.12,2.2,2.2,0,0,1,2.57-.27q1.3.71,2.51,4.1c-.36.95-1.24,2.77-2.62,5.47s-3,6-5,9.79-4.05,8.06-6.34,12.69S124,58.71,121.8,63.49s-4.28,9.42-6.18,13.94-3.44,8.62-4.64,12.31a45.49,45.49,0,0,0-2.19,9.18c-.26,2.45.16,3.92,1.26,4.43a9.41,9.41,0,0,0,5,.77,62.17,62.17,0,0,0,6.35-.82l6.5-1.15a25.57,25.57,0,0,1,5.36-.44c.37.81.1,1.59-.82,2.35a12.42,12.42,0,0,1-3.82,2,38.3,38.3,0,0,1-5.64,1.47,61.36,61.36,0,0,1-6.12.88,37.2,37.2,0,0,1-5.25.16A6.32,6.32,0,0,1,108.52,108Z"/><path class="cls-3" d="M153.36,106.31c-2.19-1.83-3.41-4.52-3.66-8.1a35.09,35.09,0,0,1,1.47-12,78.9,78.9,0,0,1,5.53-13.95,102,102,0,0,1,8.42-13.94,81.18,81.18,0,0,1,10.33-11.87,42.08,42.08,0,0,1,11.21-7.82,19.55,19.55,0,0,1,11-1.81q5.35.76,9.73,6.24A14.56,14.56,0,0,1,210.67,50a20.27,20.27,0,0,1-.16,7.11,42.83,42.83,0,0,1-2.19,7.33c-1,2.47-1.95,5-2.9,7.54a59.35,59.35,0,0,0-2.3,7.82,22.88,22.88,0,0,0-.32,8c.36,2.63,1.35,4.43,2.95,5.42a9.89,9.89,0,0,0,6,1.2,30.3,30.3,0,0,0,8-1.86,77.53,77.53,0,0,0,8.86-3.88q4.48-2.3,8.75-4.87t7.55-4.76c2.18-1.46,4.63-3.17,7.32-5.14q3.84-.77,4.32.55t-1.47,3.77a39.7,39.7,0,0,1-6,5.69A75.32,75.32,0,0,1,240,90.17a92.91,92.91,0,0,1-10.83,5.47A49.6,49.6,0,0,1,218,99a26.82,26.82,0,0,1-10.28-.11,13.93,13.93,0,0,1-8-4.86,15.87,15.87,0,0,1-2.24-3.34,8.11,8.11,0,0,0-2.35-2.9q-2.08,2-4.92,5T184,99a84.54,84.54,0,0,1-7.16,5.79,31.25,31.25,0,0,1-7.71,4.16,17.67,17.67,0,0,1-8,1A14.41,14.41,0,0,1,153.36,106.31Zm1.53-4.6c.58,2.19,1.79,3.47,3.61,3.83a11,11,0,0,0,6.45-1,37.33,37.33,0,0,0,8.15-5,66.56,66.56,0,0,0,8.75-8.31,99.53,99.53,0,0,0,8.26-10.78A77.09,77.09,0,0,0,196.84,68a65.6,65.6,0,0,0,4.1-13.23,39.13,39.13,0,0,0,.33-13.29,6.19,6.19,0,0,0-5.86-1A22.87,22.87,0,0,0,188,44.29a58,58,0,0,0-8.21,7.55,116,116,0,0,0-8.15,10q-3.93,5.4-7.38,11.26a106.68,106.68,0,0,0-5.79,11.21,55.94,55.94,0,0,0-3.4,10A14.86,14.86,0,0,0,154.89,101.71Z"/><path class="cls-3" d="M245.45,108q-1.63-1.1,0-2.9a23.66,23.66,0,0,1,5.08-4q3.51-2.19,8.1-4.49t8.91-4.32l7.66-3.61a22.06,22.06,0,0,0,4.21-2.35c2.41-2,3.88-3.81,4.43-5.3a3.78,3.78,0,0,0-.33-3.78,8.12,8.12,0,0,0-3.94-2.51,47.28,47.28,0,0,0-6.29-1.7q-3.5-.7-7.43-1.26t-7.39-1.2a43.78,43.78,0,0,1-6-1.53,6.21,6.21,0,0,1-3.39-2.3c-.58-.94-.47-2.08.33-3.39s2.59-2.91,5.36-4.81q2-1.42,5.69-4c2.48-1.72,5.16-3.48,8-5.31s5.72-3.46,8.53-4.92a31,31,0,0,1,7.05-2.84,5.12,5.12,0,0,1,3,.27,7.12,7.12,0,0,1,2.57,1.59,2.65,2.65,0,0,1,.88,2.18c-.08.81-.7,1.53-1.86,2.19q-7.67,4.26-14.88,8.15a163.28,163.28,0,0,0-14.44,8.8,1.69,1.69,0,0,0,.11,1.92,5,5,0,0,0,1.42,1.26A108.85,108.85,0,0,1,279.52,71q6.94,2,10.12,4.49t3.17,5.3a9.41,9.41,0,0,1-2.24,5.74,29.11,29.11,0,0,1-6.23,5.75,84.82,84.82,0,0,1-8.75,5.41q-4.77,2.57-9.79,4.7t-9.3,3.5a66.47,66.47,0,0,1-7.27,2Q246.22,108.49,245.45,108Z"/><path class="cls-3" d="M297.19,106.31a1.61,1.61,0,0,1-.11-.71,1.64,1.64,0,0,1,.11-.72c.29-.72.87-2,1.75-3.77s1.8-3.66,2.79-5.63,1.93-3.83,2.84-5.58,1.55-3,1.91-3.61c.15-.29.62-1.07,1.43-2.35s1.76-2.86,2.89-4.76,2.36-4,3.67-6.18,2.62-4.45,3.94-6.67S321,62,322.12,60.1s2.12-3.52,2.85-4.76q2.73-4.48,6.34-10.67t7.44-12.47q3.83-6.29,7.55-12.14a101.71,101.71,0,0,1,6.89-9.73,21.13,21.13,0,0,1,5.36-5.09C360,4.44,361,5,361.5,6.88a14.83,14.83,0,0,1,.11,2.25,14.66,14.66,0,0,1-.11,2.24c-.58,1-1.42,2.22-2.52,3.83s-2.22,3.3-3.39,5.08-2.28,3.49-3.33,5.09-1.88,2.88-2.46,3.83q-1.21,1.86-3.94,6.12c-1.82,2.85-3.88,6-6.18,9.63s-4.63,7.29-7,11.15-4.52,7.48-6.45,10.83-3.47,6.24-4.6,8.64-1.55,3.94-1.26,4.6a28,28,0,0,0,7.06-3.45q3.78-2.46,7.6-5.3t7.66-5.58a45.71,45.71,0,0,1,7.11-4.27A11.45,11.45,0,0,1,355.59,64a10.44,10.44,0,0,1,3.5,5.2c-.07.87-.12,2.42-.16,4.65s-.06,4.55-.06,7,0,4.75.06,6.94.09,3.72.16,4.6a10.11,10.11,0,0,0,1.37,3.71c.84,1.54,1.73,3,2.68,4.49s1.81,2.75,2.57,3.88,1.11,1.73,1,1.81a7.18,7.18,0,0,1-5.14,0,11.89,11.89,0,0,1-4.27-2.84A16.21,16.21,0,0,1,354.28,99a14.82,14.82,0,0,1-1.42-5c-.15-.88-.29-2.43-.44-4.65s-.31-4.56-.49-7-.33-4.76-.44-7-.16-3.72-.16-4.59l-3.17-1.64c-.51-.22-1.44,0-2.79.76a43.08,43.08,0,0,0-4.65,3q-2.62,1.92-5.47,4.32c-1.9,1.61-3.66,3.14-5.3,4.6s-3.07,2.73-4.27,3.82-1.95,1.79-2.24,2.08c-.81.73-2.15,2-4.05,3.94l-6.07,6.07q-3.22,3.23-6,6.12c-1.85,1.94-3.15,3.27-3.88,4a12.14,12.14,0,0,1-3.61.32A3,3,0,0,1,297.19,106.31Z"/><path class="cls-3" d="M382.94,108a12.81,12.81,0,0,1-6.24-4.16A14.64,14.64,0,0,1,374,97.61a22.86,22.86,0,0,1-.17-7.22,47.73,47.73,0,0,1,1.48-7.16q4.16-4.38,9.3-10t10.88-11.16a130.78,130.78,0,0,1,12-10.22A53.88,53.88,0,0,1,420,44.62a3.37,3.37,0,0,1,3.5.16A5.71,5.71,0,0,1,425.37,48a19.06,19.06,0,0,1,.5,5,38.32,38.32,0,0,1-.5,5.57,40.63,40.63,0,0,1-1.09,4.93,7.42,7.42,0,0,1-1.42,3,18,18,0,0,1-4.21,3.28q-3,1.88-7,4t-8.48,4.48q-4.49,2.35-8.58,4.76a75,75,0,0,0-7.44,4.92,23.13,23.13,0,0,0-5,4.92,6.23,6.23,0,0,0-1.32,4.65q.39,2.25,3.78,4.21a42.19,42.19,0,0,0,11.26-.49q6.68-1,13.57-2.79t13.29-3.61Q429.09,93,433.25,92l1.64,1.53a20.53,20.53,0,0,1-5.8,5,62.39,62.39,0,0,1-8.58,4.32,73.89,73.89,0,0,1-10.17,3.33,106.88,106.88,0,0,1-10.5,2.13,59,59,0,0,1-9.52.72A24.94,24.94,0,0,1,382.94,108Zm32.7-52.18c-.07-.14-.75.22-2,1.1s-2.87,2-4.76,3.44-3.9,3-6,4.65l-5.9,4.71c-1.83,1.45-3.3,2.69-4.43,3.71S390.88,75,391,75a11.82,11.82,0,0,0,5.69-.65,48.84,48.84,0,0,0,7.22-3,57.79,57.79,0,0,0,7.16-4.27,30.54,30.54,0,0,0,5.47-4.7,6.61,6.61,0,0,0,2-4.1C418.59,57.14,417.61,56.29,415.64,55.77Z"/><path class="cls-3" d="M489.58,106.31a20.43,20.43,0,0,1-4.32-4,24.48,24.48,0,0,1-3.06-4.81,32.56,32.56,0,0,1-2.08-5.41,58.94,58.94,0,0,1-1.37-5.8h-1.53A130.11,130.11,0,0,1,458,99.85q-8.21,4.49-13.78,5.47t-8.7-.87a8.58,8.58,0,0,1-4-5.53,17.79,17.79,0,0,1,.27-8.58,34.64,34.64,0,0,1,4.26-9.9A46.94,46.94,0,0,1,443.8,71a42.09,42.09,0,0,1,24.89-11.16A43.07,43.07,0,0,1,485,61.57L486.52,60,505,23c2.41.37,3.85,1.44,4.32,3.23a12.28,12.28,0,0,1-.05,6,34.55,34.55,0,0,1-2.19,6.4q-1.43,3.12-2.08,4.54c-.22.51-.73,1.55-1.53,3.11s-1.73,3.41-2.79,5.53-2.19,4.36-3.39,6.72-2.33,4.64-3.39,6.79-2,4-2.79,5.57-1.31,2.61-1.53,3.12a19.17,19.17,0,0,0-1.64,5.2,37.83,37.83,0,0,0-.49,5.47,54.61,54.61,0,0,0,.16,5.57c.14,1.86.29,3.67.44,5.42a7.66,7.66,0,0,0,2.13,4,24.39,24.39,0,0,0,3.44,2.79l3.72,2.52a11.58,11.58,0,0,1,3.07,3,2.27,2.27,0,0,1-2.19,1.8,9.07,9.07,0,0,1-3.45-.6,19,19,0,0,1-3.33-1.59A13.39,13.39,0,0,1,489.58,106.31Zm-51-6.13c.29,1.17,1.17,1.7,2.62,1.59a16.13,16.13,0,0,0,5.42-1.7,56.79,56.79,0,0,0,7.22-4.21q4-2.69,7.93-5.8t7.65-6.5a69.34,69.34,0,0,0,6.35-6.51,37.89,37.89,0,0,0,4-5.53c.91-1.6,1.11-2.84.6-3.71a19.53,19.53,0,0,0-9.46-2.3,31.14,31.14,0,0,0-10.34,1.8,39,39,0,0,0-9.84,5.2,35.67,35.67,0,0,0-7.93,7.76,27.52,27.52,0,0,0-4.54,9.47A19,19,0,0,0,438.61,100.18Z"/><path class="cls-3" d="M624.33,108a13.72,13.72,0,0,1-4.16-5.25,31.57,31.57,0,0,1-2.3-7,52.66,52.66,0,0,1-1-7.44q-.23-3.72-.33-6.56a1,1,0,0,0-.76-.22,1.06,1.06,0,0,0-.77.22,49.81,49.81,0,0,0-6.56,5.85q-3.18,3.33-6.18,6.94t-6,7.11q-3,3.51-6,6.35a8.32,8.32,0,0,1-3.88.38,7.77,7.77,0,0,1-3.5-1.31,5.87,5.87,0,0,1-2.13-2.79,5.36,5.36,0,0,1,.32-4q2.63-8.31,5.75-17.66t6.5-17.89q1.21-3.06,2.68-3.33a2.45,2.45,0,0,1,2.52,1.09,8.92,8.92,0,0,1,1.48,3.78,8.67,8.67,0,0,1-.44,4.7c-.29.73-.8,2-1.53,3.94l-2.35,6.07q-1.26,3.23-2.3,6.07c-.69,1.89-1.19,3.21-1.48,3.93v4.71c2.85-2.55,5.23-4.85,7.17-6.89s3.73-4.09,5.41-6.13,3.43-4.21,5.25-6.51,4.08-5,6.78-8.25c2-2.41,3.67-3.74,4.87-4a2.25,2.25,0,0,1,2.68,1.48,15.07,15.07,0,0,1,1.09,5.31,71,71,0,0,1,.06,7.49q-.16,4.05-.39,8c-.14,2.66-.2,5-.16,6.94a11.08,11.08,0,0,0,.66,4.21c.4.84,1.07.79,2-.16q1.64-2.52,4.76-7.49t7.11-10.89q4-5.89,8.69-12a104.18,104.18,0,0,1,9.63-10.94,48.67,48.67,0,0,1,9.84-7.6A14.6,14.6,0,0,1,676.83,46q.21.66-1.53,3.06c-1.17,1.61-2.68,3.52-4.54,5.75s-3.92,4.63-6.18,7.21-4.43,5.09-6.51,7.5-4,4.55-5.63,6.45a44.12,44.12,0,0,0-3.39,4.16c-.3.36-.86,1.18-1.7,2.46s-1.84,2.75-3,4.43l-3.72,5.36c-1.31,1.89-2.55,3.7-3.71,5.41s-2.21,3.21-3.12,4.48-1.51,2.14-1.81,2.57c-.8,1.17-1.47,2.12-2,2.85a4.79,4.79,0,0,1-1.59,1.47,2.18,2.18,0,0,1-1.69.11A7.78,7.78,0,0,1,624.33,108Z"/><path class="cls-3" d="M682.19,108A296.33,296.33,0,0,1,692.36,79.4q4.59-10.61,7.6-14.88c2-2.84,3.39-3.77,4.16-2.78s.71,3.53-.17,7.65a104.61,104.61,0,0,1-5.47,16.46,205.77,205.77,0,0,1-11.7,23.63,4.63,4.63,0,0,1-2.57.16A2.54,2.54,0,0,1,682.19,108Zm23.95-65.74a4.29,4.29,0,0,1-.16-1c0-.44-.06-.91-.06-1.42s0-1,.06-1.43a2.77,2.77,0,0,1,.16-.87c2.11-.73,3.72-.82,4.81-.27a3.57,3.57,0,0,1,2,2.4,6.77,6.77,0,0,1-.11,3.39,5,5,0,0,1-1.59,2.68,2.22,2.22,0,0,1-2.46.28Q707.46,45.39,706.14,42.21Z"/><path class="cls-3" d="M727.8,108a5.47,5.47,0,0,1,0-3.07c.29-1,.78-2.78,1.47-5.3s1.46-5.16,2.3-7.93,1.62-5.4,2.35-7.88,1.24-4.22,1.53-5.25c.37-1.23.79-2.71,1.26-4.42a10.59,10.59,0,0,0,.27-4.87,14.6,14.6,0,0,0-5,.54A52.87,52.87,0,0,1,726,71a17.59,17.59,0,0,1-5.52,0,4.66,4.66,0,0,1-3.61-3.17,7.16,7.16,0,0,1,2.9-3.45A14.74,14.74,0,0,1,724,62.67a32.84,32.84,0,0,1,4.87-.77c1.71-.15,3.37-.36,5-.66a19.39,19.39,0,0,0,4.49-1.36,8,8,0,0,0,3.39-2.9c.87-2.34,1.86-5.21,2.95-8.64s2.3-7,3.61-10.72,2.72-7.42,4.21-11.1a85,85,0,0,1,4.65-9.79c1-.66,1.84-.69,2.46-.11a6,6,0,0,1,1.48,2.46,12.44,12.44,0,0,1,.65,3.23,9.31,9.31,0,0,1,0,2.18,37.12,37.12,0,0,1-2.84,7.61q-2,4-3.72,8.14a53.36,53.36,0,0,0-2.73,8.21,15.45,15.45,0,0,0,0,7.76h29.31c.14,0,.4.29.76.88s.66,1,.88,1.42c.51,1.24,0,2.08-1.42,2.51a26.91,26.91,0,0,1-5.91.88q-3.72.23-8.37.33a90.25,90.25,0,0,0-9,.65,30,30,0,0,0-7.77,2,8,8,0,0,0-4.59,4.38q-3.62,9.3-6.62,18.54t-5.74,18.54a9.74,9.74,0,0,1-1.15,1.42A9.23,9.23,0,0,1,731,109.2a2.54,2.54,0,0,1-1.86.44C728.54,109.53,728.09,109,727.8,108Z"/><path class="cls-3" d="M775.59,106.31a1.78,1.78,0,0,1-.11-.71,1.8,1.8,0,0,1,.11-.72c.29-.72.88-2,1.75-3.77s1.81-3.66,2.79-5.63,1.93-3.83,2.85-5.58,1.55-3,1.91-3.61c.15-.29.62-1.07,1.42-2.35s1.77-2.86,2.9-4.76,2.35-4,3.66-6.18,2.63-4.45,3.94-6.67,2.55-4.3,3.72-6.23,2.12-3.52,2.84-4.76q2.75-4.48,6.35-10.67t7.44-12.47q3.83-6.29,7.54-12.14a103.52,103.52,0,0,1,6.89-9.73A21.29,21.29,0,0,1,837,5.24q2.19-1.2,3,1.64A14.83,14.83,0,0,1,840,9.13a14.66,14.66,0,0,1-.11,2.24c-.59,1-1.43,2.22-2.52,3.83s-2.22,3.3-3.39,5.08-2.28,3.49-3.34,5.09-1.87,2.88-2.46,3.83l-3.93,6.12c-1.83,2.85-3.89,6-6.18,9.63s-4.63,7.29-7,11.15-4.53,7.48-6.46,10.83-3.46,6.24-4.59,8.64-1.55,3.94-1.26,4.6a28,28,0,0,0,7.06-3.45q3.76-2.46,7.6-5.3t7.65-5.58a46.66,46.66,0,0,1,7.11-4.27A11.48,11.48,0,0,1,834,64a10.5,10.5,0,0,1,3.5,5.2c-.07.87-.13,2.42-.16,4.65s-.06,4.55-.06,7,0,4.75.06,6.94.09,3.72.16,4.6a9.92,9.92,0,0,0,1.37,3.71c.84,1.54,1.73,3,2.68,4.49s1.8,2.75,2.57,3.88,1.11,1.73,1,1.81a7.18,7.18,0,0,1-5.14,0,11.89,11.89,0,0,1-4.27-2.84A16.21,16.21,0,0,1,832.69,99a14.59,14.59,0,0,1-1.42-5c-.15-.88-.3-2.43-.44-4.65s-.31-4.56-.49-7-.33-4.76-.44-7-.17-3.72-.17-4.59l-3.17-1.64c-.51-.22-1.44,0-2.79.76a43.08,43.08,0,0,0-4.65,3q-2.62,1.92-5.46,4.32t-5.31,4.6c-1.64,1.45-3.06,2.73-4.26,3.82s-2,1.79-2.25,2.08q-1.2,1.09-4,3.94l-6.07,6.07q-3.22,3.23-6,6.12t-3.88,4a12.17,12.17,0,0,1-3.61.32A3,3,0,0,1,775.59,106.31Z"/><path class="cls-3" d="M854.45,108A6.73,6.73,0,0,1,853.2,104a8,8,0,0,1,.92-3.61,8.07,8.07,0,0,1,2.36-2.73,6.7,6.7,0,0,1,3.11-1.32,5,5,0,0,1,3.18.66,5.83,5.83,0,0,1,2.4,3.17,5,5,0,0,1-.22,4.32,10.1,10.1,0,0,1-3,3.67,7.54,7.54,0,0,1-4,1.58A3.66,3.66,0,0,1,854.45,108Z"/><path class="cls-3" d="M874.47,108a6.68,6.68,0,0,1-1.26-3.94,8.06,8.06,0,0,1,3.28-6.34,6.78,6.78,0,0,1,3.12-1.32,5,5,0,0,1,3.17.66,5.89,5.89,0,0,1,2.41,3.17,5,5,0,0,1-.22,4.32,10.2,10.2,0,0,1-3,3.67,7.54,7.54,0,0,1-4,1.58A3.65,3.65,0,0,1,874.47,108Z"/><path class="cls-3" d="M894.48,108a6.73,6.73,0,0,1-1.25-3.94,8.06,8.06,0,0,1,3.28-6.34,6.7,6.7,0,0,1,3.11-1.32,5,5,0,0,1,3.18.66,5.83,5.83,0,0,1,2.4,3.17,5,5,0,0,1-.22,4.32,10.1,10.1,0,0,1-3,3.67,7.54,7.54,0,0,1-4,1.58A3.67,3.67,0,0,1,894.48,108Z"/><path class="cls-3" d="M2.44,109a7.74,7.74,0,0,1-.33-3.89,18.74,18.74,0,0,1,1.15-4,36.28,36.28,0,0,1,1.86-3.94q1-1.92,1.8-3.66c.44-.88,1.17-2.48,2.19-4.82s2.11-4.81,3.28-7.43,2.26-5.11,3.28-7.44,1.75-4,2.19-4.92a2.76,2.76,0,0,0-.22-3,27.59,27.59,0,0,0-2.19-2.46,9,9,0,0,1-1.8-2.46c-.4-.84-.06-1.81,1-2.9a4.53,4.53,0,0,1,2.51-1.26c1-.18,2.06-.35,3.12-.49a13.43,13.43,0,0,0,3-.77,4.06,4.06,0,0,0,2.19-2.08L41.05,23.74a16.09,16.09,0,0,1-.66-6.12A9.2,9.2,0,0,1,42,13.41a14.58,14.58,0,0,1,3.5-3.34l4.81-3.39q7-1.09,13.89-2.08T78,3q6.89-.66,13.89-.87T106,2.2a4.64,4.64,0,0,1,2,1.15,9.63,9.63,0,0,1,2.08,2.35,4.37,4.37,0,0,1,.76,2.51c0,.81-.67,1.35-1.91,1.64a3.41,3.41,0,0,1-.88-.22l-1.42-.49L105.2,8.6a4.22,4.22,0,0,0-.83-.28q-10.94,0-19,.28a128,128,0,0,0-14,1.14,44.07,44.07,0,0,0-10.23,2.63,25.48,25.48,0,0,0-7.65,4.87A38,38,0,0,0,47.17,25a105.91,105.91,0,0,0-6.12,11.32q-1.86,3.28-2.85,5.53a35.29,35.29,0,0,0-1.64,4.59,6.88,6.88,0,0,0-.22,3.77,39.37,39.37,0,0,0,10.34.39,76.86,76.86,0,0,0,10.44-1.75q5.25-1.26,10.56-2.9t10.61-3A101,101,0,0,1,89,41a42.27,42.27,0,0,1,10.72,0v3.17c0,.14-1,.4-3,.76L88.9,46.33q-4.87.93-11.21,2.24t-13.18,3q-6.84,1.7-13.62,3.77A116.23,116.23,0,0,0,38.37,60a55.22,55.22,0,0,0-10,5.52,18.84,18.84,0,0,0-6,6.4Q18,80.72,14.09,90.13T6.92,109a3.85,3.85,0,0,1-2.35,1.53C3.59,110.7,2.87,110.19,2.44,109Z"/><path class="cls-3" d="M109.52,109a12.37,12.37,0,0,1-5.15-7.22,24.47,24.47,0,0,1-.32-9.52,47.46,47.46,0,0,1,3-10.61q2.19-5.46,4.7-10.55t4.92-9.3c1.61-2.8,2.85-5.12,3.72-6.94.15-.37.5-1.1,1-2.19s1.21-2.37,2-3.83,1.55-3,2.35-4.7,1.59-3.27,2.35-4.76,1.43-2.81,2-3.94.9-1.87,1-2.24.59-1.31,1.1-2.63,1.09-2.75,1.75-4.32A48.71,48.71,0,0,1,136,21.72a9.81,9.81,0,0,1,2.41-3.12,2.2,2.2,0,0,1,2.57-.27q1.3.71,2.51,4.1c-.36.95-1.24,2.77-2.62,5.47s-3,6-5,9.79-4.05,8.06-6.34,12.69S125,59.71,122.8,64.49s-4.28,9.42-6.18,13.94-3.44,8.62-4.64,12.31a45.49,45.49,0,0,0-2.19,9.18c-.26,2.45.16,3.92,1.26,4.43a9.41,9.41,0,0,0,5,.77,62.17,62.17,0,0,0,6.35-.82l6.5-1.15a25.57,25.57,0,0,1,5.36-.44c.37.81.1,1.59-.82,2.35a12.42,12.42,0,0,1-3.82,2,38.3,38.3,0,0,1-5.64,1.47,61.36,61.36,0,0,1-6.12.88,37.2,37.2,0,0,1-5.25.16A6.32,6.32,0,0,1,109.52,109Z"/><path class="cls-3" d="M154.36,107.31c-2.19-1.83-3.41-4.52-3.66-8.1a35.09,35.09,0,0,1,1.47-12,78.9,78.9,0,0,1,5.53-13.95,102,102,0,0,1,8.42-13.94,81.18,81.18,0,0,1,10.33-11.87,42.08,42.08,0,0,1,11.21-7.82,19.55,19.55,0,0,1,11-1.81q5.35.76,9.73,6.24A14.56,14.56,0,0,1,211.67,51a20.27,20.27,0,0,1-.16,7.11,42.83,42.83,0,0,1-2.19,7.33c-1,2.47-1.95,5-2.9,7.54a59.35,59.35,0,0,0-2.3,7.82,22.88,22.88,0,0,0-.32,8c.36,2.63,1.35,4.43,2.95,5.42a9.89,9.89,0,0,0,6,1.2,30.3,30.3,0,0,0,8-1.86,77.53,77.53,0,0,0,8.86-3.88q4.48-2.3,8.75-4.87t7.55-4.76c2.18-1.46,4.63-3.17,7.32-5.14q3.84-.77,4.32.55t-1.47,3.77a39.7,39.7,0,0,1-6,5.69A75.32,75.32,0,0,1,241,91.17a92.91,92.91,0,0,1-10.83,5.47A49.6,49.6,0,0,1,219,100a26.82,26.82,0,0,1-10.28-.11,13.93,13.93,0,0,1-8-4.86,15.87,15.87,0,0,1-2.24-3.34,8.11,8.11,0,0,0-2.35-2.9q-2.08,2-4.92,5T185,100a84.54,84.54,0,0,1-7.16,5.79,31.25,31.25,0,0,1-7.71,4.16,17.67,17.67,0,0,1-8,1A14.41,14.41,0,0,1,154.36,107.31Zm1.53-4.6c.58,2.19,1.79,3.47,3.61,3.83a11,11,0,0,0,6.45-1,37.33,37.33,0,0,0,8.15-5,66.56,66.56,0,0,0,8.75-8.31,99.53,99.53,0,0,0,8.26-10.78A77.09,77.09,0,0,0,197.84,69a65.6,65.6,0,0,0,4.1-13.23,39.13,39.13,0,0,0,.33-13.29,6.19,6.19,0,0,0-5.86-1A22.87,22.87,0,0,0,189,45.29a58,58,0,0,0-8.21,7.55,116,116,0,0,0-8.15,10q-3.93,5.4-7.38,11.26a106.68,106.68,0,0,0-5.79,11.21,55.94,55.94,0,0,0-3.4,10A14.86,14.86,0,0,0,155.89,102.71Z"/><path class="cls-3" d="M246.45,109q-1.63-1.1,0-2.9a23.66,23.66,0,0,1,5.08-4q3.51-2.19,8.1-4.49t8.91-4.32l7.66-3.61a22.06,22.06,0,0,0,4.21-2.35c2.41-2,3.88-3.81,4.43-5.3a3.78,3.78,0,0,0-.33-3.78,8.12,8.12,0,0,0-3.94-2.51,47.28,47.28,0,0,0-6.29-1.7q-3.5-.7-7.43-1.26t-7.39-1.2a43.78,43.78,0,0,1-6-1.53,6.21,6.21,0,0,1-3.39-2.3c-.58-.94-.47-2.08.33-3.39s2.59-2.91,5.36-4.81q2-1.42,5.69-4c2.48-1.72,5.16-3.48,8-5.31s5.72-3.46,8.53-4.92a31,31,0,0,1,7.05-2.84,5.12,5.12,0,0,1,3,.27,7.12,7.12,0,0,1,2.57,1.59,2.65,2.65,0,0,1,.88,2.18c-.08.81-.7,1.53-1.86,2.19q-7.67,4.26-14.88,8.15a163.28,163.28,0,0,0-14.44,8.8,1.69,1.69,0,0,0,.11,1.92,5,5,0,0,0,1.42,1.26A108.85,108.85,0,0,1,280.52,72q6.94,2,10.12,4.49t3.17,5.3a9.41,9.41,0,0,1-2.24,5.74,29.11,29.11,0,0,1-6.23,5.75,84.82,84.82,0,0,1-8.75,5.41q-4.77,2.57-9.79,4.7t-9.3,3.5a66.47,66.47,0,0,1-7.27,2Q247.22,109.49,246.45,109Z"/><path class="cls-3" d="M298.19,107.31a1.61,1.61,0,0,1-.11-.71,1.64,1.64,0,0,1,.11-.72c.29-.72.87-2,1.75-3.77s1.8-3.66,2.79-5.63,1.93-3.83,2.84-5.58,1.55-3,1.91-3.61c.15-.29.62-1.07,1.43-2.35s1.76-2.86,2.89-4.76,2.36-4,3.67-6.18,2.62-4.45,3.94-6.67S322,63,323.12,61.1s2.12-3.52,2.85-4.76q2.73-4.48,6.34-10.67t7.44-12.47q3.83-6.29,7.55-12.14a101.71,101.71,0,0,1,6.89-9.73,21.13,21.13,0,0,1,5.36-5.09C361,5.44,362,6,362.5,7.88a14.83,14.83,0,0,1,.11,2.25,14.66,14.66,0,0,1-.11,2.24c-.58,1-1.42,2.22-2.52,3.83s-2.22,3.3-3.39,5.08-2.28,3.49-3.33,5.09-1.88,2.88-2.46,3.83q-1.21,1.86-3.94,6.12c-1.82,2.85-3.88,6-6.18,9.63s-4.63,7.29-7,11.15-4.52,7.48-6.45,10.83-3.47,6.24-4.6,8.64-1.55,3.94-1.26,4.6a28,28,0,0,0,7.06-3.45q3.78-2.46,7.6-5.3t7.66-5.58a45.71,45.71,0,0,1,7.11-4.27A11.45,11.45,0,0,1,356.59,65a10.44,10.44,0,0,1,3.5,5.2c-.07.87-.12,2.42-.16,4.65s-.06,4.55-.06,7,0,4.75.06,6.94.09,3.72.16,4.6a10.11,10.11,0,0,0,1.37,3.71c.84,1.54,1.73,3,2.68,4.49s1.81,2.75,2.57,3.88,1.11,1.73,1,1.81a7.18,7.18,0,0,1-5.14,0,11.89,11.89,0,0,1-4.27-2.84,16.21,16.21,0,0,1-3.06-4.49,14.82,14.82,0,0,1-1.42-5c-.15-.88-.29-2.43-.44-4.65s-.31-4.56-.49-7-.33-4.76-.44-7-.16-3.72-.16-4.59l-3.17-1.64c-.51-.22-1.44,0-2.79.76a43.08,43.08,0,0,0-4.65,3q-2.62,1.92-5.47,4.32c-1.9,1.61-3.66,3.14-5.3,4.6s-3.07,2.73-4.27,3.82-1.95,1.79-2.24,2.08c-.81.73-2.15,2-4.05,3.94l-6.07,6.07q-3.22,3.23-6,6.12c-1.85,1.94-3.15,3.27-3.88,4a12.14,12.14,0,0,1-3.61.32A3,3,0,0,1,298.19,107.31Z"/><path class="cls-3" d="M383.94,109a12.81,12.81,0,0,1-6.24-4.16A14.64,14.64,0,0,1,375,98.61a22.86,22.86,0,0,1-.17-7.22,47.73,47.73,0,0,1,1.48-7.16q4.16-4.38,9.3-10t10.88-11.16a130.78,130.78,0,0,1,12-10.22A53.88,53.88,0,0,1,421,45.62a3.37,3.37,0,0,1,3.5.16A5.71,5.71,0,0,1,426.37,49a19.06,19.06,0,0,1,.5,5,38.32,38.32,0,0,1-.5,5.57,40.63,40.63,0,0,1-1.09,4.93,7.42,7.42,0,0,1-1.42,3,18,18,0,0,1-4.21,3.28q-3,1.88-7,4t-8.48,4.48q-4.49,2.35-8.58,4.76a75,75,0,0,0-7.44,4.92,23.13,23.13,0,0,0-5,4.92,6.23,6.23,0,0,0-1.32,4.65q.39,2.25,3.78,4.21a42.19,42.19,0,0,0,11.26-.49q6.68-1,13.57-2.79t13.29-3.61Q430.09,94,434.25,93l1.64,1.53a20.53,20.53,0,0,1-5.8,5,62.39,62.39,0,0,1-8.58,4.32,73.89,73.89,0,0,1-10.17,3.33,106.88,106.88,0,0,1-10.5,2.13,59,59,0,0,1-9.52.72A24.94,24.94,0,0,1,383.94,109Zm32.7-52.18c-.07-.14-.75.22-2,1.1s-2.87,2-4.76,3.44-3.9,3-6,4.65l-5.9,4.71c-1.83,1.45-3.3,2.69-4.43,3.71S391.88,76,392,76a11.82,11.82,0,0,0,5.69-.65,48.84,48.84,0,0,0,7.22-3,57.79,57.79,0,0,0,7.16-4.27,30.54,30.54,0,0,0,5.47-4.7,6.61,6.61,0,0,0,2-4.1C419.59,58.14,418.61,57.29,416.64,56.77Z"/><path class="cls-3" d="M490.58,107.31a20.43,20.43,0,0,1-4.32-4,24.48,24.48,0,0,1-3.06-4.81,32.56,32.56,0,0,1-2.08-5.41,58.94,58.94,0,0,1-1.37-5.8h-1.53A130.11,130.11,0,0,1,459,100.85q-8.21,4.49-13.78,5.47t-8.7-.87a8.58,8.58,0,0,1-4-5.53,17.79,17.79,0,0,1,.27-8.58,34.64,34.64,0,0,1,4.26-9.9A46.94,46.94,0,0,1,444.8,72a42.09,42.09,0,0,1,24.89-11.16A43.07,43.07,0,0,1,486,62.57L487.52,61,506,24c2.41.37,3.85,1.44,4.32,3.23a12.28,12.28,0,0,1-.05,6,34.55,34.55,0,0,1-2.19,6.4q-1.43,3.12-2.08,4.54c-.22.51-.73,1.55-1.53,3.11s-1.73,3.41-2.79,5.53-2.19,4.36-3.39,6.72-2.33,4.64-3.39,6.79-2,4-2.79,5.57-1.31,2.61-1.53,3.12a19.17,19.17,0,0,0-1.64,5.2,37.83,37.83,0,0,0-.49,5.47,54.61,54.61,0,0,0,.16,5.57c.14,1.86.29,3.67.44,5.42a7.66,7.66,0,0,0,2.13,4,24.39,24.39,0,0,0,3.44,2.79l3.72,2.52a11.58,11.58,0,0,1,3.07,3,2.27,2.27,0,0,1-2.19,1.8,9.07,9.07,0,0,1-3.45-.6,19,19,0,0,1-3.33-1.59A13.39,13.39,0,0,1,490.58,107.31Zm-51-6.13c.29,1.17,1.17,1.7,2.62,1.59a16.13,16.13,0,0,0,5.42-1.7,56.79,56.79,0,0,0,7.22-4.21q4-2.69,7.93-5.8t7.65-6.5a69.34,69.34,0,0,0,6.35-6.51,37.89,37.89,0,0,0,4-5.53c.91-1.6,1.11-2.84.6-3.71a19.53,19.53,0,0,0-9.46-2.3,31.14,31.14,0,0,0-10.34,1.8,39,39,0,0,0-9.84,5.2,35.67,35.67,0,0,0-7.93,7.76,27.52,27.52,0,0,0-4.54,9.47A19,19,0,0,0,439.61,101.18Z"/><path class="cls-3" d="M625.33,109a13.72,13.72,0,0,1-4.16-5.25,31.57,31.57,0,0,1-2.3-7,52.66,52.66,0,0,1-1-7.44q-.23-3.72-.33-6.56a1,1,0,0,0-.76-.22,1.06,1.06,0,0,0-.77.22,49.81,49.81,0,0,0-6.56,5.85q-3.18,3.33-6.18,6.94t-6,7.11q-3,3.51-6,6.35a8.32,8.32,0,0,1-3.88.38,7.77,7.77,0,0,1-3.5-1.31,5.87,5.87,0,0,1-2.13-2.79,5.36,5.36,0,0,1,.32-4q2.63-8.31,5.75-17.66t6.5-17.89q1.21-3.06,2.68-3.33a2.45,2.45,0,0,1,2.52,1.09,8.92,8.92,0,0,1,1.48,3.78,8.67,8.67,0,0,1-.44,4.7c-.29.73-.8,2-1.53,3.94l-2.35,6.07q-1.26,3.23-2.3,6.07c-.69,1.89-1.19,3.21-1.48,3.93v4.71c2.85-2.55,5.23-4.85,7.17-6.89s3.73-4.09,5.41-6.13,3.43-4.21,5.25-6.51,4.08-5,6.78-8.25c2-2.41,3.67-3.74,4.87-4a2.25,2.25,0,0,1,2.68,1.48,15.07,15.07,0,0,1,1.09,5.31,71,71,0,0,1,.06,7.49q-.16,4.05-.39,8c-.14,2.66-.2,5-.16,6.94a11.08,11.08,0,0,0,.66,4.21c.4.84,1.07.79,2-.16q1.64-2.52,4.76-7.49t7.11-10.89q4-5.89,8.69-12a104.18,104.18,0,0,1,9.63-10.94,48.67,48.67,0,0,1,9.84-7.6A14.6,14.6,0,0,1,677.83,47q.21.66-1.53,3.06c-1.17,1.61-2.68,3.52-4.54,5.75s-3.92,4.63-6.18,7.21-4.43,5.09-6.51,7.5-4,4.55-5.63,6.45a44.12,44.12,0,0,0-3.39,4.16c-.3.36-.86,1.18-1.7,2.46s-1.84,2.75-3,4.43l-3.72,5.36c-1.31,1.89-2.55,3.7-3.71,5.41s-2.21,3.21-3.12,4.48-1.51,2.14-1.81,2.57c-.8,1.17-1.47,2.12-2,2.85a4.79,4.79,0,0,1-1.59,1.47,2.18,2.18,0,0,1-1.69.11A7.78,7.78,0,0,1,625.33,109Z"/><path class="cls-3" d="M683.19,109A296.33,296.33,0,0,1,693.36,80.4q4.59-10.61,7.6-14.88c2-2.84,3.39-3.77,4.16-2.78s.71,3.53-.17,7.65a104.61,104.61,0,0,1-5.47,16.46,205.77,205.77,0,0,1-11.7,23.63,4.63,4.63,0,0,1-2.57.16A2.54,2.54,0,0,1,683.19,109Zm23.95-65.74a4.29,4.29,0,0,1-.16-1c0-.44-.06-.91-.06-1.42s0-1,.06-1.43a2.77,2.77,0,0,1,.16-.87c2.11-.73,3.72-.82,4.81-.27a3.57,3.57,0,0,1,2,2.4,6.77,6.77,0,0,1-.11,3.39,5,5,0,0,1-1.59,2.68,2.22,2.22,0,0,1-2.46.28Q708.46,46.39,707.14,43.21Z"/><path class="cls-3" d="M728.8,109a5.47,5.47,0,0,1,0-3.07c.29-1,.78-2.78,1.47-5.3s1.46-5.16,2.3-7.93,1.62-5.4,2.35-7.88,1.24-4.22,1.53-5.25c.37-1.23.79-2.71,1.26-4.42a10.59,10.59,0,0,0,.27-4.87,14.6,14.6,0,0,0-5,.54A52.87,52.87,0,0,1,727,72a17.59,17.59,0,0,1-5.52,0,4.66,4.66,0,0,1-3.61-3.17,7.16,7.16,0,0,1,2.9-3.45A14.74,14.74,0,0,1,725,63.67a32.84,32.84,0,0,1,4.87-.77c1.71-.15,3.37-.36,5-.66a19.39,19.39,0,0,0,4.49-1.36,8,8,0,0,0,3.39-2.9c.87-2.34,1.86-5.21,2.95-8.64s2.3-7,3.61-10.72,2.72-7.42,4.21-11.1a85,85,0,0,1,4.65-9.79c1-.66,1.84-.69,2.46-.11a6,6,0,0,1,1.48,2.46,12.44,12.44,0,0,1,.65,3.23,9.31,9.31,0,0,1,0,2.18,37.12,37.12,0,0,1-2.84,7.61q-2,4-3.72,8.14a53.36,53.36,0,0,0-2.73,8.21,15.45,15.45,0,0,0,0,7.76h29.31c.14,0,.4.29.76.88s.66,1,.88,1.42c.51,1.24,0,2.08-1.42,2.51a26.91,26.91,0,0,1-5.91.88q-3.72.23-8.37.33a90.25,90.25,0,0,0-9,.65,30,30,0,0,0-7.77,2,8,8,0,0,0-4.59,4.38q-3.62,9.3-6.62,18.54t-5.74,18.54a9.74,9.74,0,0,1-1.15,1.42A9.23,9.23,0,0,1,732,110.2a2.54,2.54,0,0,1-1.86.44C729.54,110.53,729.09,110,728.8,109Z"/><path class="cls-3" d="M776.59,107.31a1.78,1.78,0,0,1-.11-.71,1.8,1.8,0,0,1,.11-.72c.29-.72.88-2,1.75-3.77s1.81-3.66,2.79-5.63,1.93-3.83,2.85-5.58,1.55-3,1.91-3.61c.15-.29.62-1.07,1.42-2.35s1.77-2.86,2.9-4.76,2.35-4,3.66-6.18,2.63-4.45,3.94-6.67,2.55-4.3,3.72-6.23,2.12-3.52,2.84-4.76q2.75-4.48,6.35-10.67t7.44-12.47q3.83-6.29,7.54-12.14a103.52,103.52,0,0,1,6.89-9.73A21.29,21.29,0,0,1,838,6.24q2.19-1.2,3,1.64a14.83,14.83,0,0,1,.11,2.25,14.66,14.66,0,0,1-.11,2.24c-.59,1-1.43,2.22-2.52,3.83s-2.22,3.3-3.39,5.08-2.28,3.49-3.34,5.09-1.87,2.88-2.46,3.83l-3.93,6.12c-1.83,2.85-3.89,6-6.18,9.63s-4.63,7.29-7,11.15-4.53,7.48-6.46,10.83-3.46,6.24-4.59,8.64-1.55,3.94-1.26,4.6a28,28,0,0,0,7.06-3.45q3.76-2.46,7.6-5.3t7.65-5.58a46.66,46.66,0,0,1,7.11-4.27A11.48,11.48,0,0,1,835,65a10.5,10.5,0,0,1,3.5,5.2c-.07.87-.13,2.42-.16,4.65s-.06,4.55-.06,7,0,4.75.06,6.94.09,3.72.16,4.6a9.92,9.92,0,0,0,1.37,3.71c.84,1.54,1.73,3,2.68,4.49s1.8,2.75,2.57,3.88,1.11,1.73,1,1.81a7.18,7.18,0,0,1-5.14,0,11.89,11.89,0,0,1-4.27-2.84,16.21,16.21,0,0,1-3.06-4.49,14.59,14.59,0,0,1-1.42-5c-.15-.88-.3-2.43-.44-4.65s-.31-4.56-.49-7-.33-4.76-.44-7-.17-3.72-.17-4.59l-3.17-1.64c-.51-.22-1.44,0-2.79.76a43.08,43.08,0,0,0-4.65,3q-2.62,1.92-5.46,4.32t-5.31,4.6c-1.64,1.45-3.06,2.73-4.26,3.82s-2,1.79-2.25,2.08q-1.2,1.09-4,3.94l-6.07,6.07q-3.22,3.23-6,6.12t-3.88,4a12.17,12.17,0,0,1-3.61.32A3,3,0,0,1,776.59,107.31Z"/><path class="cls-3" d="M855.45,109A6.73,6.73,0,0,1,854.2,105a8,8,0,0,1,.92-3.61,8.07,8.07,0,0,1,2.36-2.73,6.7,6.7,0,0,1,3.11-1.32,5,5,0,0,1,3.18.66,5.83,5.83,0,0,1,2.4,3.17,5,5,0,0,1-.22,4.32,10.1,10.1,0,0,1-3,3.67,7.54,7.54,0,0,1-4,1.58A3.66,3.66,0,0,1,855.45,109Z"/><path class="cls-3" d="M875.47,109a6.68,6.68,0,0,1-1.26-3.94,8.06,8.06,0,0,1,3.28-6.34,6.78,6.78,0,0,1,3.12-1.32,5,5,0,0,1,3.17.66,5.89,5.89,0,0,1,2.41,3.17,5,5,0,0,1-.22,4.32,10.2,10.2,0,0,1-3,3.67,7.54,7.54,0,0,1-4,1.58A3.65,3.65,0,0,1,875.47,109Z"/><path class="cls-3" d="M895.48,109a6.73,6.73,0,0,1-1.25-3.94,8.06,8.06,0,0,1,3.28-6.34,6.7,6.7,0,0,1,3.11-1.32,5,5,0,0,1,3.18.66,5.83,5.83,0,0,1,2.4,3.17,5,5,0,0,1-.22,4.32,10.1,10.1,0,0,1-3,3.67,7.54,7.54,0,0,1-4,1.58A3.67,3.67,0,0,1,895.48,109Z"/></g><g class="cls-2"><path class="cls-4" d="M.44,107a7.74,7.74,0,0,1-.33-3.89,18.74,18.74,0,0,1,1.15-4,36.28,36.28,0,0,1,1.86-3.94q1-1.92,1.8-3.66c.44-.88,1.17-2.48,2.19-4.82s2.11-4.81,3.28-7.43,2.26-5.11,3.28-7.44,1.75-4,2.19-4.92a2.76,2.76,0,0,0-.22-3,27.59,27.59,0,0,0-2.19-2.46,9,9,0,0,1-1.8-2.46c-.4-.84-.06-1.81,1-2.9a4.53,4.53,0,0,1,2.51-1.26c1-.18,2.06-.35,3.12-.49a13.43,13.43,0,0,0,3-.77,4.06,4.06,0,0,0,2.19-2.08L39.05,21.74a16.09,16.09,0,0,1-.66-6.12A9.2,9.2,0,0,1,40,11.41a14.58,14.58,0,0,1,3.5-3.34l4.81-3.39q7-1.09,13.89-2.08T76,1Q82.91.3,89.91.09T104,.2a4.64,4.64,0,0,1,2,1.15,9.63,9.63,0,0,1,2.08,2.35,4.37,4.37,0,0,1,.76,2.51c0,.81-.67,1.35-1.91,1.64a3.41,3.41,0,0,1-.88-.22l-1.42-.49L103.2,6.6a4.22,4.22,0,0,0-.83-.28q-10.94,0-19,.28a128,128,0,0,0-14,1.14,44.07,44.07,0,0,0-10.23,2.63,25.48,25.48,0,0,0-7.65,4.87A38,38,0,0,0,45.17,23a105.91,105.91,0,0,0-6.12,11.32q-1.86,3.28-2.85,5.53a35.29,35.29,0,0,0-1.64,4.59,6.88,6.88,0,0,0-.22,3.77,39.37,39.37,0,0,0,10.34.39,76.86,76.86,0,0,0,10.44-1.75q5.25-1.26,10.56-2.9t10.61-3A101,101,0,0,1,87,39a42.27,42.27,0,0,1,10.72,0v3.17c0,.14-1,.4-3,.76L86.9,44.33q-4.87.93-11.21,2.24t-13.18,3q-6.84,1.7-13.62,3.77A116.23,116.23,0,0,0,36.37,58a55.22,55.22,0,0,0-10,5.52,18.84,18.84,0,0,0-6,6.4Q16,78.72,12.09,88.13T4.92,107a3.85,3.85,0,0,1-2.35,1.53C1.59,108.7.87,108.19.44,107Z"/><path class="cls-4" d="M107.52,107a12.37,12.37,0,0,1-5.15-7.22,24.47,24.47,0,0,1-.32-9.52,47.46,47.46,0,0,1,3-10.61q2.19-5.46,4.7-10.55t4.92-9.3c1.61-2.8,2.85-5.12,3.72-6.94.15-.37.5-1.1,1-2.19s1.21-2.37,2-3.83,1.55-3,2.35-4.7,1.59-3.27,2.35-4.76,1.43-2.81,2-3.94.9-1.87,1-2.24.59-1.31,1.1-2.63,1.09-2.75,1.75-4.32A48.71,48.71,0,0,1,134,19.72a9.81,9.81,0,0,1,2.41-3.12,2.2,2.2,0,0,1,2.57-.27q1.3.71,2.51,4.1c-.36.95-1.24,2.77-2.62,5.47s-3,6-5,9.79-4.05,8.06-6.34,12.69S123,57.71,120.8,62.49s-4.28,9.42-6.18,13.94-3.44,8.62-4.64,12.31a45.49,45.49,0,0,0-2.19,9.18c-.26,2.45.16,3.92,1.26,4.43a9.41,9.41,0,0,0,5,.77,62.17,62.17,0,0,0,6.35-.82l6.5-1.15a25.57,25.57,0,0,1,5.36-.44c.37.81.1,1.59-.82,2.35a12.42,12.42,0,0,1-3.82,2,38.3,38.3,0,0,1-5.64,1.47,61.36,61.36,0,0,1-6.12.88,37.2,37.2,0,0,1-5.25.16A6.32,6.32,0,0,1,107.52,107Z"/><path class="cls-4" d="M152.36,105.31c-2.19-1.83-3.41-4.52-3.66-8.1a35.09,35.09,0,0,1,1.47-12,78.9,78.9,0,0,1,5.53-13.95,102,102,0,0,1,8.42-13.94,81.18,81.18,0,0,1,10.33-11.87,42.08,42.08,0,0,1,11.21-7.82,19.55,19.55,0,0,1,11-1.81q5.35.76,9.73,6.24A14.56,14.56,0,0,1,209.67,49a20.27,20.27,0,0,1-.16,7.11,42.83,42.83,0,0,1-2.19,7.33c-1,2.47-1.95,5-2.9,7.54a59.35,59.35,0,0,0-2.3,7.82,22.88,22.88,0,0,0-.32,8c.36,2.63,1.35,4.43,2.95,5.42a9.89,9.89,0,0,0,6,1.2,30.3,30.3,0,0,0,8-1.86,77.53,77.53,0,0,0,8.86-3.88q4.48-2.3,8.75-4.87t7.55-4.76c2.18-1.46,4.63-3.17,7.32-5.14q3.84-.77,4.32.55t-1.47,3.77a39.7,39.7,0,0,1-6,5.69A75.32,75.32,0,0,1,239,89.17a92.91,92.91,0,0,1-10.83,5.47A49.6,49.6,0,0,1,217,98a26.82,26.82,0,0,1-10.28-.11,13.93,13.93,0,0,1-8-4.86,15.87,15.87,0,0,1-2.24-3.34,8.11,8.11,0,0,0-2.35-2.9q-2.08,2-4.92,5T183,98a84.54,84.54,0,0,1-7.16,5.79,31.25,31.25,0,0,1-7.71,4.16,17.67,17.67,0,0,1-8,1A14.41,14.41,0,0,1,152.36,105.31Zm1.53-4.6c.58,2.19,1.79,3.47,3.61,3.83a11,11,0,0,0,6.45-1,37.33,37.33,0,0,0,8.15-5,66.56,66.56,0,0,0,8.75-8.31,99.53,99.53,0,0,0,8.26-10.78A77.09,77.09,0,0,0,195.84,67a65.6,65.6,0,0,0,4.1-13.23,39.13,39.13,0,0,0,.33-13.29,6.19,6.19,0,0,0-5.86-1A22.87,22.87,0,0,0,187,43.29a58,58,0,0,0-8.21,7.55,116,116,0,0,0-8.15,10q-3.93,5.4-7.38,11.26a106.68,106.68,0,0,0-5.79,11.21,55.94,55.94,0,0,0-3.4,10A14.86,14.86,0,0,0,153.89,100.71Z"/><path class="cls-4" d="M244.45,107q-1.63-1.1,0-2.9a23.66,23.66,0,0,1,5.08-4q3.51-2.19,8.1-4.49t8.91-4.32l7.66-3.61a22.06,22.06,0,0,0,4.21-2.35c2.41-2,3.88-3.81,4.43-5.3a3.78,3.78,0,0,0-.33-3.78,8.12,8.12,0,0,0-3.94-2.51,47.28,47.28,0,0,0-6.29-1.7q-3.5-.7-7.43-1.26t-7.39-1.2a43.78,43.78,0,0,1-6-1.53,6.21,6.21,0,0,1-3.39-2.3c-.58-.94-.47-2.08.33-3.39s2.59-2.91,5.36-4.81q2-1.42,5.69-4c2.48-1.72,5.16-3.48,8-5.31s5.72-3.46,8.53-4.92a31,31,0,0,1,7.05-2.84,5.12,5.12,0,0,1,3,.27,7.12,7.12,0,0,1,2.57,1.59,2.65,2.65,0,0,1,.88,2.18c-.08.81-.7,1.53-1.86,2.19q-7.67,4.26-14.88,8.15a163.28,163.28,0,0,0-14.44,8.8,1.69,1.69,0,0,0,.11,1.92,5,5,0,0,0,1.42,1.26A108.85,108.85,0,0,1,278.52,70q6.94,2,10.12,4.49t3.17,5.3a9.41,9.41,0,0,1-2.24,5.74,29.11,29.11,0,0,1-6.23,5.75,84.82,84.82,0,0,1-8.75,5.41q-4.77,2.57-9.79,4.7t-9.3,3.5a66.47,66.47,0,0,1-7.27,2Q245.22,107.49,244.45,107Z"/><path class="cls-4" d="M296.19,105.31a1.61,1.61,0,0,1-.11-.71,1.64,1.64,0,0,1,.11-.72c.29-.72.87-2,1.75-3.77s1.8-3.66,2.79-5.63,1.93-3.83,2.84-5.58,1.55-3,1.91-3.61c.15-.29.62-1.07,1.43-2.35s1.76-2.86,2.89-4.76,2.36-4,3.67-6.18,2.62-4.45,3.94-6.67S320,61,321.12,59.1s2.12-3.52,2.85-4.76q2.73-4.48,6.34-10.67t7.44-12.47q3.83-6.28,7.55-12.14a101.71,101.71,0,0,1,6.89-9.73,21.13,21.13,0,0,1,5.36-5.09C359,3.44,360,4,360.5,5.88a14.83,14.83,0,0,1,.11,2.25,14.66,14.66,0,0,1-.11,2.24c-.58,1-1.42,2.22-2.52,3.83s-2.22,3.3-3.39,5.08-2.28,3.49-3.33,5.09-1.88,2.88-2.46,3.83q-1.21,1.86-3.94,6.12c-1.82,2.85-3.88,6-6.18,9.63s-4.63,7.29-7,11.15-4.52,7.48-6.45,10.83-3.47,6.24-4.6,8.64-1.55,3.94-1.26,4.6a28,28,0,0,0,7.06-3.45q3.78-2.46,7.6-5.3t7.66-5.58a45.71,45.71,0,0,1,7.11-4.27A11.45,11.45,0,0,1,354.59,63a10.44,10.44,0,0,1,3.5,5.2c-.07.87-.12,2.42-.16,4.65s-.06,4.55-.06,7,0,4.75.06,6.94.09,3.72.16,4.6a10.11,10.11,0,0,0,1.37,3.71c.84,1.54,1.73,3,2.68,4.49s1.81,2.75,2.57,3.88,1.11,1.73,1,1.81a7.18,7.18,0,0,1-5.14,0,11.89,11.89,0,0,1-4.27-2.84A16.21,16.21,0,0,1,353.28,98a14.82,14.82,0,0,1-1.42-5c-.15-.88-.29-2.43-.44-4.65s-.31-4.56-.49-7-.33-4.76-.44-7-.16-3.72-.16-4.59l-3.17-1.64c-.51-.22-1.44,0-2.79.76a43.08,43.08,0,0,0-4.65,3q-2.62,1.92-5.47,4.32c-1.9,1.61-3.66,3.14-5.3,4.6s-3.07,2.73-4.27,3.82-1.95,1.79-2.24,2.08c-.81.73-2.15,2-4.05,3.94l-6.07,6.07q-3.22,3.23-6,6.12c-1.85,1.94-3.15,3.27-3.88,4a12.14,12.14,0,0,1-3.61.32A3,3,0,0,1,296.19,105.31Z"/><path class="cls-4" d="M381.94,107a12.81,12.81,0,0,1-6.24-4.16A14.64,14.64,0,0,1,373,96.61a22.86,22.86,0,0,1-.17-7.22,47.73,47.73,0,0,1,1.48-7.16q4.16-4.38,9.3-10t10.88-11.16a130.78,130.78,0,0,1,12-10.22A53.88,53.88,0,0,1,419,43.62a3.37,3.37,0,0,1,3.5.16A5.71,5.71,0,0,1,424.37,47a19.06,19.06,0,0,1,.5,5,38.32,38.32,0,0,1-.5,5.57,40.63,40.63,0,0,1-1.09,4.93,7.42,7.42,0,0,1-1.42,3,18,18,0,0,1-4.21,3.28q-3,1.88-7,4t-8.48,4.48q-4.49,2.35-8.58,4.76a75,75,0,0,0-7.44,4.92,23.13,23.13,0,0,0-5,4.92,6.23,6.23,0,0,0-1.32,4.65q.39,2.25,3.78,4.21a42.19,42.19,0,0,0,11.26-.49q6.68-1,13.57-2.79t13.29-3.61Q428.09,92,432.25,91l1.64,1.53a20.53,20.53,0,0,1-5.8,5,62.39,62.39,0,0,1-8.58,4.32,73.89,73.89,0,0,1-10.17,3.33,106.88,106.88,0,0,1-10.5,2.13,59,59,0,0,1-9.52.72A24.94,24.94,0,0,1,381.94,107Zm32.7-52.18c-.07-.14-.75.22-2,1.1s-2.87,2-4.76,3.44-3.9,3-6,4.65l-5.9,4.71c-1.83,1.45-3.3,2.69-4.43,3.71S389.88,74,390,74a11.82,11.82,0,0,0,5.69-.65,48.84,48.84,0,0,0,7.22-3,57.79,57.79,0,0,0,7.16-4.27,30.54,30.54,0,0,0,5.47-4.7,6.61,6.61,0,0,0,2-4.1C417.59,56.14,416.61,55.29,414.64,54.77Z"/><path class="cls-4" d="M488.58,105.31a20.43,20.43,0,0,1-4.32-4,24.48,24.48,0,0,1-3.06-4.81,32.56,32.56,0,0,1-2.08-5.41,58.94,58.94,0,0,1-1.37-5.8h-1.53A130.11,130.11,0,0,1,457,98.85q-8.21,4.49-13.78,5.47t-8.7-.87a8.58,8.58,0,0,1-4-5.53,17.79,17.79,0,0,1,.27-8.58,34.64,34.64,0,0,1,4.26-9.9A46.94,46.94,0,0,1,442.8,70a42.09,42.09,0,0,1,24.89-11.16A43.07,43.07,0,0,1,484,60.57L485.52,59,504,22c2.41.37,3.85,1.44,4.32,3.23a12.28,12.28,0,0,1-.05,6,34.55,34.55,0,0,1-2.19,6.4q-1.43,3.12-2.08,4.54c-.22.51-.73,1.55-1.53,3.11s-1.73,3.41-2.79,5.53-2.19,4.36-3.39,6.72-2.33,4.64-3.39,6.79-2,4-2.79,5.57-1.31,2.61-1.53,3.12a19.17,19.17,0,0,0-1.64,5.2,37.83,37.83,0,0,0-.49,5.47,54.61,54.61,0,0,0,.16,5.57c.14,1.86.29,3.67.44,5.42a7.66,7.66,0,0,0,2.13,4,24.39,24.39,0,0,0,3.44,2.79l3.72,2.52a11.58,11.58,0,0,1,3.07,3,2.27,2.27,0,0,1-2.19,1.8,9.07,9.07,0,0,1-3.45-.6,19,19,0,0,1-3.33-1.59A13.39,13.39,0,0,1,488.58,105.31Zm-51-6.13c.29,1.17,1.17,1.7,2.62,1.59a16.13,16.13,0,0,0,5.42-1.7,56.79,56.79,0,0,0,7.22-4.21q4-2.69,7.93-5.8t7.65-6.5a69.34,69.34,0,0,0,6.35-6.51,37.89,37.89,0,0,0,4-5.53c.91-1.6,1.11-2.84.6-3.71a19.53,19.53,0,0,0-9.46-2.3,31.14,31.14,0,0,0-10.34,1.8,39,39,0,0,0-9.84,5.2,35.67,35.67,0,0,0-7.93,7.76,27.52,27.52,0,0,0-4.54,9.47A19,19,0,0,0,437.61,99.18Z"/><path class="cls-4" d="M623.33,107a13.72,13.72,0,0,1-4.16-5.25,31.57,31.57,0,0,1-2.3-7,52.66,52.66,0,0,1-1-7.44q-.23-3.72-.33-6.56a1,1,0,0,0-.76-.22,1.06,1.06,0,0,0-.77.22,49.81,49.81,0,0,0-6.56,5.85q-3.18,3.33-6.18,6.94t-6,7.11q-3,3.51-6,6.35a8.32,8.32,0,0,1-3.88.38,7.77,7.77,0,0,1-3.5-1.31,5.87,5.87,0,0,1-2.13-2.79,5.36,5.36,0,0,1,.32-4q2.63-8.31,5.75-17.66t6.5-17.89q1.21-3.06,2.68-3.33a2.45,2.45,0,0,1,2.52,1.09,8.92,8.92,0,0,1,1.48,3.78,8.67,8.67,0,0,1-.44,4.7c-.29.73-.8,2-1.53,3.94l-2.35,6.07q-1.26,3.23-2.3,6.07c-.69,1.89-1.19,3.21-1.48,3.93v4.71c2.85-2.55,5.23-4.85,7.17-6.89s3.73-4.09,5.41-6.13,3.43-4.21,5.25-6.51,4.08-5,6.78-8.25c2-2.41,3.67-3.74,4.87-4a2.25,2.25,0,0,1,2.68,1.48,15.07,15.07,0,0,1,1.09,5.31,71,71,0,0,1,.06,7.49q-.16,4.05-.39,8c-.14,2.66-.2,5-.16,6.94a11.08,11.08,0,0,0,.66,4.21c.4.84,1.07.79,2-.16q1.64-2.52,4.76-7.49t7.11-10.89q4-5.89,8.69-12a104.18,104.18,0,0,1,9.63-10.94,48.67,48.67,0,0,1,9.84-7.6A14.6,14.6,0,0,1,675.83,45q.21.66-1.53,3.06c-1.17,1.61-2.68,3.52-4.54,5.75s-3.92,4.63-6.18,7.21-4.43,5.09-6.51,7.5-4,4.55-5.63,6.45a44.12,44.12,0,0,0-3.39,4.16c-.3.36-.86,1.18-1.7,2.46s-1.84,2.75-3,4.43l-3.72,5.36c-1.31,1.89-2.55,3.7-3.71,5.41s-2.21,3.21-3.12,4.48-1.51,2.14-1.81,2.57c-.8,1.17-1.47,2.12-2,2.85a4.79,4.79,0,0,1-1.59,1.47,2.18,2.18,0,0,1-1.69.11A7.78,7.78,0,0,1,623.33,107Z"/><path class="cls-4" d="M681.19,107A296.33,296.33,0,0,1,691.36,78.4q4.59-10.61,7.6-14.88c2-2.84,3.39-3.77,4.16-2.78s.71,3.53-.17,7.65a104.61,104.61,0,0,1-5.47,16.46,205.77,205.77,0,0,1-11.7,23.63,4.63,4.63,0,0,1-2.57.16A2.54,2.54,0,0,1,681.19,107Zm23.95-65.74a4.29,4.29,0,0,1-.16-1c0-.44-.06-.91-.06-1.42s0-1,.06-1.43a2.77,2.77,0,0,1,.16-.87c2.11-.73,3.72-.82,4.81-.27a3.57,3.57,0,0,1,2,2.4,6.77,6.77,0,0,1-.11,3.39,5,5,0,0,1-1.59,2.68,2.22,2.22,0,0,1-2.46.28Q706.46,44.39,705.14,41.21Z"/><path class="cls-4" d="M726.8,107a5.47,5.47,0,0,1,0-3.07c.29-1,.78-2.78,1.47-5.3s1.46-5.16,2.3-7.93,1.62-5.4,2.35-7.88,1.24-4.22,1.53-5.25c.37-1.23.79-2.71,1.26-4.42a10.59,10.59,0,0,0,.27-4.87,14.6,14.6,0,0,0-5,.54A52.87,52.87,0,0,1,725,70a17.59,17.59,0,0,1-5.52,0,4.66,4.66,0,0,1-3.61-3.17,7.16,7.16,0,0,1,2.9-3.45A14.74,14.74,0,0,1,723,61.67a32.84,32.84,0,0,1,4.87-.77c1.71-.15,3.37-.36,5-.66a19.39,19.39,0,0,0,4.49-1.36,8,8,0,0,0,3.39-2.9c.87-2.34,1.86-5.21,2.95-8.64s2.3-7,3.61-10.72,2.72-7.42,4.21-11.1a85,85,0,0,1,4.65-9.79c1-.66,1.84-.69,2.46-.11a6,6,0,0,1,1.48,2.46,12.44,12.44,0,0,1,.65,3.23,9.31,9.31,0,0,1,0,2.18,37.12,37.12,0,0,1-2.84,7.61q-2,4-3.72,8.14a53.36,53.36,0,0,0-2.73,8.21,15.45,15.45,0,0,0,0,7.76h29.31c.14,0,.4.29.76.88s.66,1,.88,1.42c.51,1.24,0,2.08-1.42,2.51a26.91,26.91,0,0,1-5.91.88q-3.72.23-8.37.33a90.25,90.25,0,0,0-9,.65,30,30,0,0,0-7.77,2,8,8,0,0,0-4.59,4.38q-3.62,9.3-6.62,18.54t-5.74,18.54a9.74,9.74,0,0,1-1.15,1.42A9.23,9.23,0,0,1,730,108.2a2.54,2.54,0,0,1-1.86.44C727.54,108.53,727.09,108,726.8,107Z"/><path class="cls-4" d="M774.59,105.31a1.78,1.78,0,0,1-.11-.71,1.8,1.8,0,0,1,.11-.72c.29-.72.88-2,1.75-3.77s1.81-3.66,2.79-5.63,1.93-3.83,2.85-5.58,1.55-3,1.91-3.61c.15-.29.62-1.07,1.42-2.35s1.77-2.86,2.9-4.76,2.35-4,3.66-6.18,2.63-4.45,3.94-6.67,2.55-4.3,3.72-6.23,2.12-3.52,2.84-4.76q2.75-4.48,6.35-10.67t7.44-12.47q3.83-6.28,7.54-12.14a103.52,103.52,0,0,1,6.89-9.73A21.29,21.29,0,0,1,836,4.24q2.19-1.2,3,1.64A14.83,14.83,0,0,1,839,8.13a14.66,14.66,0,0,1-.11,2.24c-.59,1-1.43,2.22-2.52,3.83s-2.22,3.3-3.39,5.08-2.28,3.49-3.34,5.09-1.87,2.88-2.46,3.83l-3.93,6.12c-1.83,2.85-3.89,6-6.18,9.63s-4.63,7.29-7,11.15-4.53,7.48-6.46,10.83-3.46,6.24-4.59,8.64-1.55,3.94-1.26,4.6a28,28,0,0,0,7.06-3.45q3.76-2.46,7.6-5.3t7.65-5.58a46.66,46.66,0,0,1,7.11-4.27A11.48,11.48,0,0,1,833,63a10.5,10.5,0,0,1,3.5,5.2c-.07.87-.13,2.42-.16,4.65s-.06,4.55-.06,7,0,4.75.06,6.94.09,3.72.16,4.6a9.92,9.92,0,0,0,1.37,3.71c.84,1.54,1.73,3,2.68,4.49s1.8,2.75,2.57,3.88,1.11,1.73,1,1.81a7.18,7.18,0,0,1-5.14,0,11.89,11.89,0,0,1-4.27-2.84A16.21,16.21,0,0,1,831.69,98a14.59,14.59,0,0,1-1.42-5c-.15-.88-.3-2.43-.44-4.65s-.31-4.56-.49-7-.33-4.76-.44-7-.17-3.72-.17-4.59l-3.17-1.64c-.51-.22-1.44,0-2.79.76a43.08,43.08,0,0,0-4.65,3q-2.62,1.92-5.46,4.32t-5.31,4.6c-1.64,1.45-3.06,2.73-4.26,3.82s-2,1.79-2.25,2.08q-1.2,1.09-4,3.94l-6.07,6.07q-3.22,3.23-6,6.12t-3.88,4a12.17,12.17,0,0,1-3.61.32A3,3,0,0,1,774.59,105.31Z"/><path class="cls-4" d="M853.45,107A6.73,6.73,0,0,1,852.2,103a8,8,0,0,1,.92-3.61,8.07,8.07,0,0,1,2.36-2.73,6.7,6.7,0,0,1,3.11-1.32,5,5,0,0,1,3.18.66,5.83,5.83,0,0,1,2.4,3.17,5,5,0,0,1-.22,4.32,10.1,10.1,0,0,1-3,3.67,7.54,7.54,0,0,1-4,1.58A3.66,3.66,0,0,1,853.45,107Z"/><path class="cls-4" d="M873.47,107a6.68,6.68,0,0,1-1.26-3.94,8.06,8.06,0,0,1,3.28-6.34,6.78,6.78,0,0,1,3.12-1.32,5,5,0,0,1,3.17.66,5.89,5.89,0,0,1,2.41,3.17,5,5,0,0,1-.22,4.32,10.2,10.2,0,0,1-3,3.67,7.54,7.54,0,0,1-4,1.58A3.65,3.65,0,0,1,873.47,107Z"/><path class="cls-4" d="M893.48,107a6.73,6.73,0,0,1-1.25-3.94,8.06,8.06,0,0,1,3.28-6.34,6.7,6.7,0,0,1,3.11-1.32,5,5,0,0,1,3.18.66,5.83,5.83,0,0,1,2.4,3.17,5,5,0,0,1-.22,4.32,10.1,10.1,0,0,1-3,3.67,7.54,7.54,0,0,1-4,1.58A3.67,3.67,0,0,1,893.48,107Z"/></g><path class="cls-5" d="M1.44,108a7.74,7.74,0,0,1-.33-3.89,18.74,18.74,0,0,1,1.15-4,36.28,36.28,0,0,1,1.86-3.94q1-1.92,1.8-3.66c.44-.88,1.17-2.48,2.19-4.82s2.11-4.81,3.28-7.43,2.26-5.11,3.28-7.44,1.75-4,2.19-4.92a2.76,2.76,0,0,0-.22-3,27.59,27.59,0,0,0-2.19-2.46,9,9,0,0,1-1.8-2.46c-.4-.84-.06-1.81,1-2.9a4.53,4.53,0,0,1,2.51-1.26c1-.18,2.06-.35,3.12-.49a13.43,13.43,0,0,0,3-.77,4.06,4.06,0,0,0,2.19-2.08L40.05,22.74a16.09,16.09,0,0,1-.66-6.12A9.2,9.2,0,0,1,41,12.41a14.58,14.58,0,0,1,3.5-3.34l4.81-3.39q7-1.09,13.89-2.08T77,2q6.89-.66,13.89-.87T105,1.2a4.64,4.64,0,0,1,2,1.15,9.63,9.63,0,0,1,2.08,2.35,4.37,4.37,0,0,1,.76,2.51c0,.81-.67,1.35-1.91,1.64a3.41,3.41,0,0,1-.88-.22l-1.42-.49L104.2,7.6a4.22,4.22,0,0,0-.83-.28q-10.94,0-19,.28a128,128,0,0,0-14,1.14,44.07,44.07,0,0,0-10.23,2.63,25.48,25.48,0,0,0-7.65,4.87A38,38,0,0,0,46.17,24a105.91,105.91,0,0,0-6.12,11.32q-1.86,3.28-2.85,5.53a35.29,35.29,0,0,0-1.64,4.59,6.88,6.88,0,0,0-.22,3.77,39.37,39.37,0,0,0,10.34.39,76.86,76.86,0,0,0,10.44-1.75q5.25-1.26,10.56-2.9t10.61-3A101,101,0,0,1,88,40a42.27,42.27,0,0,1,10.72,0v3.17c0,.14-1,.4-3,.76L87.9,45.33q-4.87.93-11.21,2.24t-13.18,3q-6.84,1.7-13.62,3.77A116.23,116.23,0,0,0,37.37,59a55.22,55.22,0,0,0-10,5.52,18.84,18.84,0,0,0-6,6.4Q17,79.72,13.09,89.13T5.92,108a3.85,3.85,0,0,1-2.35,1.53C2.59,109.7,1.87,109.19,1.44,108Z"/><path class="cls-5" d="M108.52,108a12.37,12.37,0,0,1-5.15-7.22,24.47,24.47,0,0,1-.32-9.52,47.46,47.46,0,0,1,3-10.61q2.19-5.46,4.7-10.55t4.92-9.3c1.61-2.8,2.85-5.12,3.72-6.94.15-.37.5-1.1,1-2.19s1.21-2.37,2-3.83,1.55-3,2.35-4.7,1.59-3.27,2.35-4.76,1.43-2.81,2-3.94.9-1.87,1-2.24.59-1.31,1.1-2.63,1.09-2.75,1.75-4.32A48.71,48.71,0,0,1,135,20.72a9.81,9.81,0,0,1,2.41-3.12,2.2,2.2,0,0,1,2.57-.27q1.3.71,2.51,4.1c-.36.95-1.24,2.77-2.62,5.47s-3,6-5,9.79-4.05,8.06-6.34,12.69S124,58.71,121.8,63.49s-4.28,9.42-6.18,13.94-3.44,8.62-4.64,12.31a45.49,45.49,0,0,0-2.19,9.18c-.26,2.45.16,3.92,1.26,4.43a9.41,9.41,0,0,0,5,.77,62.17,62.17,0,0,0,6.35-.82l6.5-1.15a25.57,25.57,0,0,1,5.36-.44c.37.81.1,1.59-.82,2.35a12.42,12.42,0,0,1-3.82,2,38.3,38.3,0,0,1-5.64,1.47,61.36,61.36,0,0,1-6.12.88,37.2,37.2,0,0,1-5.25.16A6.32,6.32,0,0,1,108.52,108Z"/><path class="cls-5" d="M153.36,106.31c-2.19-1.83-3.41-4.52-3.66-8.1a35.09,35.09,0,0,1,1.47-12,78.9,78.9,0,0,1,5.53-13.95,102,102,0,0,1,8.42-13.94,81.18,81.18,0,0,1,10.33-11.87,42.08,42.08,0,0,1,11.21-7.82,19.55,19.55,0,0,1,11-1.81q5.35.76,9.73,6.24A14.56,14.56,0,0,1,210.67,50a20.27,20.27,0,0,1-.16,7.11,42.83,42.83,0,0,1-2.19,7.33c-1,2.47-1.95,5-2.9,7.54a59.35,59.35,0,0,0-2.3,7.82,22.88,22.88,0,0,0-.32,8c.36,2.63,1.35,4.43,2.95,5.42a9.89,9.89,0,0,0,6,1.2,30.3,30.3,0,0,0,8-1.86,77.53,77.53,0,0,0,8.86-3.88q4.48-2.3,8.75-4.87t7.55-4.76c2.18-1.46,4.63-3.17,7.32-5.14q3.84-.77,4.32.55t-1.47,3.77a39.7,39.7,0,0,1-6,5.69A75.32,75.32,0,0,1,240,90.17a92.91,92.91,0,0,1-10.83,5.47A49.6,49.6,0,0,1,218,99a26.82,26.82,0,0,1-10.28-.11,13.93,13.93,0,0,1-8-4.86,15.87,15.87,0,0,1-2.24-3.34,8.11,8.11,0,0,0-2.35-2.9q-2.08,2-4.92,5T184,99a84.54,84.54,0,0,1-7.16,5.79,31.25,31.25,0,0,1-7.71,4.16,17.67,17.67,0,0,1-8,1A14.41,14.41,0,0,1,153.36,106.31Zm1.53-4.6c.58,2.19,1.79,3.47,3.61,3.83a11,11,0,0,0,6.45-1,37.33,37.33,0,0,0,8.15-5,66.56,66.56,0,0,0,8.75-8.31,99.53,99.53,0,0,0,8.26-10.78A77.09,77.09,0,0,0,196.84,68a65.6,65.6,0,0,0,4.1-13.23,39.13,39.13,0,0,0,.33-13.29,6.19,6.19,0,0,0-5.86-1A22.87,22.87,0,0,0,188,44.29a58,58,0,0,0-8.21,7.55,116,116,0,0,0-8.15,10q-3.93,5.4-7.38,11.26a106.68,106.68,0,0,0-5.79,11.21,55.94,55.94,0,0,0-3.4,10A14.86,14.86,0,0,0,154.89,101.71Z"/><path class="cls-5" d="M245.45,108q-1.63-1.1,0-2.9a23.66,23.66,0,0,1,5.08-4q3.51-2.19,8.1-4.49t8.91-4.32l7.66-3.61a22.06,22.06,0,0,0,4.21-2.35c2.41-2,3.88-3.81,4.43-5.3a3.78,3.78,0,0,0-.33-3.78,8.12,8.12,0,0,0-3.94-2.51,47.28,47.28,0,0,0-6.29-1.7q-3.5-.7-7.43-1.26t-7.39-1.2a43.78,43.78,0,0,1-6-1.53,6.21,6.21,0,0,1-3.39-2.3c-.58-.94-.47-2.08.33-3.39s2.59-2.91,5.36-4.81q2-1.42,5.69-4c2.48-1.72,5.16-3.48,8-5.31s5.72-3.46,8.53-4.92a31,31,0,0,1,7.05-2.84,5.12,5.12,0,0,1,3,.27,7.12,7.12,0,0,1,2.57,1.59,2.65,2.65,0,0,1,.88,2.18c-.08.81-.7,1.53-1.86,2.19q-7.67,4.26-14.88,8.15a163.28,163.28,0,0,0-14.44,8.8,1.69,1.69,0,0,0,.11,1.92,5,5,0,0,0,1.42,1.26A108.85,108.85,0,0,1,279.52,71q6.94,2,10.12,4.49t3.17,5.3a9.41,9.41,0,0,1-2.24,5.74,29.11,29.11,0,0,1-6.23,5.75,84.82,84.82,0,0,1-8.75,5.41q-4.77,2.57-9.79,4.7t-9.3,3.5a66.47,66.47,0,0,1-7.27,2Q246.22,108.49,245.45,108Z"/><path class="cls-5" d="M297.19,106.31a1.61,1.61,0,0,1-.11-.71,1.64,1.64,0,0,1,.11-.72c.29-.72.87-2,1.75-3.77s1.8-3.66,2.79-5.63,1.93-3.83,2.84-5.58,1.55-3,1.91-3.61c.15-.29.62-1.07,1.43-2.35s1.76-2.86,2.89-4.76,2.36-4,3.67-6.18,2.62-4.45,3.94-6.67S321,62,322.12,60.1s2.12-3.52,2.85-4.76q2.73-4.48,6.34-10.67t7.44-12.47q3.83-6.29,7.55-12.14a101.71,101.71,0,0,1,6.89-9.73,21.13,21.13,0,0,1,5.36-5.09C360,4.44,361,5,361.5,6.88a14.83,14.83,0,0,1,.11,2.25,14.66,14.66,0,0,1-.11,2.24c-.58,1-1.42,2.22-2.52,3.83s-2.22,3.3-3.39,5.08-2.28,3.49-3.33,5.09-1.88,2.88-2.46,3.83q-1.21,1.86-3.94,6.12c-1.82,2.85-3.88,6-6.18,9.63s-4.63,7.29-7,11.15-4.52,7.48-6.45,10.83-3.47,6.24-4.6,8.64-1.55,3.94-1.26,4.6a28,28,0,0,0,7.06-3.45q3.78-2.46,7.6-5.3t7.66-5.58a45.71,45.71,0,0,1,7.11-4.27A11.45,11.45,0,0,1,355.59,64a10.44,10.44,0,0,1,3.5,5.2c-.07.87-.12,2.42-.16,4.65s-.06,4.55-.06,7,0,4.75.06,6.94.09,3.72.16,4.6a10.11,10.11,0,0,0,1.37,3.71c.84,1.54,1.73,3,2.68,4.49s1.81,2.75,2.57,3.88,1.11,1.73,1,1.81a7.18,7.18,0,0,1-5.14,0,11.89,11.89,0,0,1-4.27-2.84A16.21,16.21,0,0,1,354.28,99a14.82,14.82,0,0,1-1.42-5c-.15-.88-.29-2.43-.44-4.65s-.31-4.56-.49-7-.33-4.76-.44-7-.16-3.72-.16-4.59l-3.17-1.64c-.51-.22-1.44,0-2.79.76a43.08,43.08,0,0,0-4.65,3q-2.62,1.92-5.47,4.32c-1.9,1.61-3.66,3.14-5.3,4.6s-3.07,2.73-4.27,3.82-1.95,1.79-2.24,2.08c-.81.73-2.15,2-4.05,3.94l-6.07,6.07q-3.22,3.23-6,6.12c-1.85,1.94-3.15,3.27-3.88,4a12.14,12.14,0,0,1-3.61.32A3,3,0,0,1,297.19,106.31Z"/><path class="cls-5" d="M382.94,108a12.81,12.81,0,0,1-6.24-4.16A14.64,14.64,0,0,1,374,97.61a22.86,22.86,0,0,1-.17-7.22,47.73,47.73,0,0,1,1.48-7.16q4.16-4.38,9.3-10t10.88-11.16a130.78,130.78,0,0,1,12-10.22A53.88,53.88,0,0,1,420,44.62a3.37,3.37,0,0,1,3.5.16A5.71,5.71,0,0,1,425.37,48a19.06,19.06,0,0,1,.5,5,38.32,38.32,0,0,1-.5,5.57,40.63,40.63,0,0,1-1.09,4.93,7.42,7.42,0,0,1-1.42,3,18,18,0,0,1-4.21,3.28q-3,1.88-7,4t-8.48,4.48q-4.49,2.35-8.58,4.76a75,75,0,0,0-7.44,4.92,23.13,23.13,0,0,0-5,4.92,6.23,6.23,0,0,0-1.32,4.65q.39,2.25,3.78,4.21a42.19,42.19,0,0,0,11.26-.49q6.68-1,13.57-2.79t13.29-3.61Q429.09,93,433.25,92l1.64,1.53a20.53,20.53,0,0,1-5.8,5,62.39,62.39,0,0,1-8.58,4.32,73.89,73.89,0,0,1-10.17,3.33,106.88,106.88,0,0,1-10.5,2.13,59,59,0,0,1-9.52.72A24.94,24.94,0,0,1,382.94,108Zm32.7-52.18c-.07-.14-.75.22-2,1.1s-2.87,2-4.76,3.44-3.9,3-6,4.65l-5.9,4.71c-1.83,1.45-3.3,2.69-4.43,3.71S390.88,75,391,75a11.82,11.82,0,0,0,5.69-.65,48.84,48.84,0,0,0,7.22-3,57.79,57.79,0,0,0,7.16-4.27,30.54,30.54,0,0,0,5.47-4.7,6.61,6.61,0,0,0,2-4.1C418.59,57.14,417.61,56.29,415.64,55.77Z"/><path class="cls-5" d="M489.58,106.31a20.43,20.43,0,0,1-4.32-4,24.48,24.48,0,0,1-3.06-4.81,32.56,32.56,0,0,1-2.08-5.41,58.94,58.94,0,0,1-1.37-5.8h-1.53A130.11,130.11,0,0,1,458,99.85q-8.21,4.49-13.78,5.47t-8.7-.87a8.58,8.58,0,0,1-4-5.53,17.79,17.79,0,0,1,.27-8.58,34.64,34.64,0,0,1,4.26-9.9A46.94,46.94,0,0,1,443.8,71a42.09,42.09,0,0,1,24.89-11.16A43.07,43.07,0,0,1,485,61.57L486.52,60,505,23c2.41.37,3.85,1.44,4.32,3.23a12.28,12.28,0,0,1-.05,6,34.55,34.55,0,0,1-2.19,6.4q-1.43,3.12-2.08,4.54c-.22.51-.73,1.55-1.53,3.11s-1.73,3.41-2.79,5.53-2.19,4.36-3.39,6.72-2.33,4.64-3.39,6.79-2,4-2.79,5.57-1.31,2.61-1.53,3.12a19.17,19.17,0,0,0-1.64,5.2,37.83,37.83,0,0,0-.49,5.47,54.61,54.61,0,0,0,.16,5.57c.14,1.86.29,3.67.44,5.42a7.66,7.66,0,0,0,2.13,4,24.39,24.39,0,0,0,3.44,2.79l3.72,2.52a11.58,11.58,0,0,1,3.07,3,2.27,2.27,0,0,1-2.19,1.8,9.07,9.07,0,0,1-3.45-.6,19,19,0,0,1-3.33-1.59A13.39,13.39,0,0,1,489.58,106.31Zm-51-6.13c.29,1.17,1.17,1.7,2.62,1.59a16.13,16.13,0,0,0,5.42-1.7,56.79,56.79,0,0,0,7.22-4.21q4-2.69,7.93-5.8t7.65-6.5a69.34,69.34,0,0,0,6.35-6.51,37.89,37.89,0,0,0,4-5.53c.91-1.6,1.11-2.84.6-3.71a19.53,19.53,0,0,0-9.46-2.3,31.14,31.14,0,0,0-10.34,1.8,39,39,0,0,0-9.84,5.2,35.67,35.67,0,0,0-7.93,7.76,27.52,27.52,0,0,0-4.54,9.47A19,19,0,0,0,438.61,100.18Z"/><path class="cls-5" d="M624.33,108a13.72,13.72,0,0,1-4.16-5.25,31.57,31.57,0,0,1-2.3-7,52.66,52.66,0,0,1-1-7.44q-.23-3.72-.33-6.56a1,1,0,0,0-.76-.22,1.06,1.06,0,0,0-.77.22,49.81,49.81,0,0,0-6.56,5.85q-3.18,3.33-6.18,6.94t-6,7.11q-3,3.51-6,6.35a8.32,8.32,0,0,1-3.88.38,7.77,7.77,0,0,1-3.5-1.31,5.87,5.87,0,0,1-2.13-2.79,5.36,5.36,0,0,1,.32-4q2.63-8.31,5.75-17.66t6.5-17.89q1.21-3.06,2.68-3.33a2.45,2.45,0,0,1,2.52,1.09,8.92,8.92,0,0,1,1.48,3.78,8.67,8.67,0,0,1-.44,4.7c-.29.73-.8,2-1.53,3.94l-2.35,6.07q-1.26,3.23-2.3,6.07c-.69,1.89-1.19,3.21-1.48,3.93v4.71c2.85-2.55,5.23-4.85,7.17-6.89s3.73-4.09,5.41-6.13,3.43-4.21,5.25-6.51,4.08-5,6.78-8.25c2-2.41,3.67-3.74,4.87-4a2.25,2.25,0,0,1,2.68,1.48,15.07,15.07,0,0,1,1.09,5.31,71,71,0,0,1,.06,7.49q-.16,4.05-.39,8c-.14,2.66-.2,5-.16,6.94a11.08,11.08,0,0,0,.66,4.21c.4.84,1.07.79,2-.16q1.64-2.52,4.76-7.49t7.11-10.89q4-5.89,8.69-12a104.18,104.18,0,0,1,9.63-10.94,48.67,48.67,0,0,1,9.84-7.6A14.6,14.6,0,0,1,676.83,46q.21.66-1.53,3.06c-1.17,1.61-2.68,3.52-4.54,5.75s-3.92,4.63-6.18,7.21-4.43,5.09-6.51,7.5-4,4.55-5.63,6.45a44.12,44.12,0,0,0-3.39,4.16c-.3.36-.86,1.18-1.7,2.46s-1.84,2.75-3,4.43l-3.72,5.36c-1.31,1.89-2.55,3.7-3.71,5.41s-2.21,3.21-3.12,4.48-1.51,2.14-1.81,2.57c-.8,1.17-1.47,2.12-2,2.85a4.79,4.79,0,0,1-1.59,1.47,2.18,2.18,0,0,1-1.69.11A7.78,7.78,0,0,1,624.33,108Z"/><path class="cls-5" d="M682.19,108A296.33,296.33,0,0,1,692.36,79.4q4.59-10.61,7.6-14.88c2-2.84,3.39-3.77,4.16-2.78s.71,3.53-.17,7.65a104.61,104.61,0,0,1-5.47,16.46,205.77,205.77,0,0,1-11.7,23.63,4.63,4.63,0,0,1-2.57.16A2.54,2.54,0,0,1,682.19,108Zm23.95-65.74a4.29,4.29,0,0,1-.16-1c0-.44-.06-.91-.06-1.42s0-1,.06-1.43a2.77,2.77,0,0,1,.16-.87c2.11-.73,3.72-.82,4.81-.27a3.57,3.57,0,0,1,2,2.4,6.77,6.77,0,0,1-.11,3.39,5,5,0,0,1-1.59,2.68,2.22,2.22,0,0,1-2.46.28Q707.46,45.39,706.14,42.21Z"/><path class="cls-5" d="M727.8,108a5.47,5.47,0,0,1,0-3.07c.29-1,.78-2.78,1.47-5.3s1.46-5.16,2.3-7.93,1.62-5.4,2.35-7.88,1.24-4.22,1.53-5.25c.37-1.23.79-2.71,1.26-4.42a10.59,10.59,0,0,0,.27-4.87,14.6,14.6,0,0,0-5,.54A52.87,52.87,0,0,1,726,71a17.59,17.59,0,0,1-5.52,0,4.66,4.66,0,0,1-3.61-3.17,7.16,7.16,0,0,1,2.9-3.45A14.74,14.74,0,0,1,724,62.67a32.84,32.84,0,0,1,4.87-.77c1.71-.15,3.37-.36,5-.66a19.39,19.39,0,0,0,4.49-1.36,8,8,0,0,0,3.39-2.9c.87-2.34,1.86-5.21,2.95-8.64s2.3-7,3.61-10.72,2.72-7.42,4.21-11.1a85,85,0,0,1,4.65-9.79c1-.66,1.84-.69,2.46-.11a6,6,0,0,1,1.48,2.46,12.44,12.44,0,0,1,.65,3.23,9.31,9.31,0,0,1,0,2.18,37.12,37.12,0,0,1-2.84,7.61q-2,4-3.72,8.14a53.36,53.36,0,0,0-2.73,8.21,15.45,15.45,0,0,0,0,7.76h29.31c.14,0,.4.29.76.88s.66,1,.88,1.42c.51,1.24,0,2.08-1.42,2.51a26.91,26.91,0,0,1-5.91.88q-3.72.23-8.37.33a90.25,90.25,0,0,0-9,.65,30,30,0,0,0-7.77,2,8,8,0,0,0-4.59,4.38q-3.62,9.3-6.62,18.54t-5.74,18.54a9.74,9.74,0,0,1-1.15,1.42A9.23,9.23,0,0,1,731,109.2a2.54,2.54,0,0,1-1.86.44C728.54,109.53,728.09,109,727.8,108Z"/><path class="cls-5" d="M775.59,106.31a1.78,1.78,0,0,1-.11-.71,1.8,1.8,0,0,1,.11-.72c.29-.72.88-2,1.75-3.77s1.81-3.66,2.79-5.63,1.93-3.83,2.85-5.58,1.55-3,1.91-3.61c.15-.29.62-1.07,1.42-2.35s1.77-2.86,2.9-4.76,2.35-4,3.66-6.18,2.63-4.45,3.94-6.67,2.55-4.3,3.72-6.23,2.12-3.52,2.84-4.76q2.75-4.48,6.35-10.67t7.44-12.47q3.83-6.29,7.54-12.14a103.52,103.52,0,0,1,6.89-9.73A21.29,21.29,0,0,1,837,5.24q2.19-1.2,3,1.64A14.83,14.83,0,0,1,840,9.13a14.66,14.66,0,0,1-.11,2.24c-.59,1-1.43,2.22-2.52,3.83s-2.22,3.3-3.39,5.08-2.28,3.49-3.34,5.09-1.87,2.88-2.46,3.83l-3.93,6.12c-1.83,2.85-3.89,6-6.18,9.63s-4.63,7.29-7,11.15-4.53,7.48-6.46,10.83-3.46,6.24-4.59,8.64-1.55,3.94-1.26,4.6a28,28,0,0,0,7.06-3.45q3.76-2.46,7.6-5.3t7.65-5.58a46.66,46.66,0,0,1,7.11-4.27A11.48,11.48,0,0,1,834,64a10.5,10.5,0,0,1,3.5,5.2c-.07.87-.13,2.42-.16,4.65s-.06,4.55-.06,7,0,4.75.06,6.94.09,3.72.16,4.6a9.92,9.92,0,0,0,1.37,3.71c.84,1.54,1.73,3,2.68,4.49s1.8,2.75,2.57,3.88,1.11,1.73,1,1.81a7.18,7.18,0,0,1-5.14,0,11.89,11.89,0,0,1-4.27-2.84A16.21,16.21,0,0,1,832.69,99a14.59,14.59,0,0,1-1.42-5c-.15-.88-.3-2.43-.44-4.65s-.31-4.56-.49-7-.33-4.76-.44-7-.17-3.72-.17-4.59l-3.17-1.64c-.51-.22-1.44,0-2.79.76a43.08,43.08,0,0,0-4.65,3q-2.62,1.92-5.46,4.32t-5.31,4.6c-1.64,1.45-3.06,2.73-4.26,3.82s-2,1.79-2.25,2.08q-1.2,1.09-4,3.94l-6.07,6.07q-3.22,3.23-6,6.12t-3.88,4a12.17,12.17,0,0,1-3.61.32A3,3,0,0,1,775.59,106.31Z"/><path class="cls-5" d="M854.45,108A6.73,6.73,0,0,1,853.2,104a8,8,0,0,1,.92-3.61,8.07,8.07,0,0,1,2.36-2.73,6.7,6.7,0,0,1,3.11-1.32,5,5,0,0,1,3.18.66,5.83,5.83,0,0,1,2.4,3.17,5,5,0,0,1-.22,4.32,10.1,10.1,0,0,1-3,3.67,7.54,7.54,0,0,1-4,1.58A3.66,3.66,0,0,1,854.45,108Z"/><path class="cls-5" d="M874.47,108a6.68,6.68,0,0,1-1.26-3.94,8.06,8.06,0,0,1,3.28-6.34,6.78,6.78,0,0,1,3.12-1.32,5,5,0,0,1,3.17.66,5.89,5.89,0,0,1,2.41,3.17,5,5,0,0,1-.22,4.32,10.2,10.2,0,0,1-3,3.67,7.54,7.54,0,0,1-4,1.58A3.65,3.65,0,0,1,874.47,108Z"/><path class="cls-5" d="M894.48,108a6.73,6.73,0,0,1-1.25-3.94,8.06,8.06,0,0,1,3.28-6.34,6.7,6.7,0,0,1,3.11-1.32,5,5,0,0,1,3.18.66,5.83,5.83,0,0,1,2.4,3.17,5,5,0,0,1-.22,4.32,10.1,10.1,0,0,1-3,3.67,7.54,7.54,0,0,1-4,1.58A3.67,3.67,0,0,1,894.48,108Z"/></g></g></g></svg>